<svg height="483pt" viewBox="0 -2 483.37703 483" width="483pt" xmlns="http://www.w3.org/2000/svg" xmlns:xlink="http://www.w3.org/1999/xlink"><linearGradient id="a" gradientUnits="userSpaceOnUse" x1="241.690159" x2="241.690159" y1="2.289515" y2="461.962515"><stop offset="0" stop-color="#00efd1"/><stop offset="1" stop-color="#00acea"/></linearGradient><path d="m475.382812 225.578125h-24.371093c-1.910157-44-21.414063-85.667969-55.222657-117.039063-26.066406-24.042968-58.296874-40.382812-93.097656-47.195312v-19.65625c0-22.917969-18.582031-41.5-41.5-41.5-22.921875 0-41.5 18.582031-41.5 41.5v20.308594c-33.585937 7.109375-64.617187 23.195312-89.785156 46.542968-33.804688 31.371094-53.121094 73.039063-55.035156 117.039063h-24.367188c-2.730468-.035156-5.28125 1.335937-6.753906 3.632813-1.476562 2.292968-1.660156 5.1875-.492188 7.652343l20.988282 44.789063c.027344.058594.058594.113281.089844.171875 9.890624 19.957031 29.8125 32.988281 52.058593 34.058593-10.949219 3.269532-21.332031 8.195313-30.789062 14.613282l-1.183594-15.519532c-.335937-4.402343-4.179687-7.703124-8.585937-7.367187l-68.445313 5.222656c-4.40625.335938-7.703125 4.179688-7.3671875 8.585938l11.4648435 150.203125c.320313 4.167968 3.796875 7.390625 7.976563 7.390625.203125 0 .40625-.007813.609375-.023438l68.449219-5.226562c4.402343-.335938 7.703124-4.179688 7.367187-8.582031l-.578125-7.566407 17.058594-11.554687c6.707031-4.558594 14.925781-6.335938 22.917968-4.949219l108.972657 18.699219c.175781.03125.351562.058594.53125.074218 24.375 2.46875 48.902343-2.925781 70-15.394531.324219-.191406.636719-.40625.929687-.644531l143.183594-115.289062c3.296875-2.652344 3.953125-7.417969 1.5-10.867188-4.320312-6.09375-10.152344-10.957031-16.925781-14.109375 7.625-5.761719 13.808593-13.210937 18.066406-21.761719.03125-.0625.0625-.125.089844-.1875l20.992187-44.804687c1.15625-2.460938.964844-5.34375-.507812-7.632813-1.472656-2.285156-4.019532-3.648437-6.738282-3.613281zm-239.691406-183.890625c0-14.082031 11.414063-25.5 25.5-25.5 14.082032 0 25.5 11.417969 25.5 25.5v17.125c-16.953125-1.992188-34.082031-1.859375-51 .390625zm-94.828125 78.578125c32.511719-30.167969 75.863281-46.816406 122.078125-46.816406s89.570313 16.667969 122.078125 46.835937c30.5 28.304688 48.070313 65.292969 49.980469 105.292969h-344.117188c1.90625-40 19.480469-77.007813 49.980469-105.3125zm146.960938 201.035156-62.417969 4.765625c-9.984375.746094-20.011719-.757812-29.339844-4.40625l-6.671875-2.816406c-2.953125-1.160156-5.933593-2.265625-8.929687-3.265625h205.714844l-48.769532 29.765625c-10.945312-16.410156-29.917968-25.609375-49.585937-24.042969zm-260.992188 141.125-10.246093-134.246093 52.492187-4.007813 10.246094 134.246094zm279.308594-31.414062c-17.957031 10.476562-38.761719 15.019531-59.449219 12.980469l-108.703125-18.652344c-12.0625-2.09375-24.472656.585937-34.597656 7.472656l-9.488281 6.425781-6.859375-89.851562c26.921875-22.410157 63.929687-28.339844 96.5-15.453125l6.671875 2.617187c11.574218 4.53125 24.015625 6.402344 36.410156 5.46875l62.417969-4.765625c18.144531-1.363281 34.777343 10.132813 39.921875 27.585938l-93.792969 7.160156c-4.289063.328125-7.550781 3.980469-7.390625 8.277344s3.691406 7.695312 7.988281 7.699218c.199219 0 .410157-.007812.617188-.023437l102.601562-7.832031c4.40625-.335938 7.703125-4.179688 7.367188-8.585938-.296875-3.875-1.007813-7.703125-2.117188-11.425781l66.195313-40.132813c.058594-.035156.117187-.070312.175781-.109374 9.78125-6.300782 22.492187-5.652344 31.582031 1.609374zm141.050781-156.386719c-7.757812 15.441406-23.625 25.121094-40.902344 24.953125h-286.695312c-17.277344.167969-33.144531-9.511719-40.902344-24.953125l-15.605468-33.046875h399.714843zm0 0" fill="url(#a)"/></svg>